<?xml version="1.0" encoding="utf-8"?>
<!-- Generator: Adobe Illustrator 19.1.0, SVG Export Plug-In . SVG Version: 6.00 Build 0)  -->
<svg version="1.1" id="Layer_1" xmlns="http://www.w3.org/2000/svg" xmlns:xlink="http://www.w3.org/1999/xlink" x="0px" y="0px"
	 viewBox="0 0 460 200" enable-background="new 0 0 460 200" xml:space="preserve">
<g>
	<path fill="#333333" d="M243.8,120.3v-5.5c-5.6,4.5-12.8,6.7-21.6,6.7c-10,0-18-3-23.8-8.9c-5.5-5.6-8.2-12.7-8.2-21.3
		c0-8.9,2.8-16.1,8.3-21.7c6-6,14-8.9,24.2-8.9c8.4,0,15.5,2.1,21.1,6.4v-6.2h11.4v59.5H243.8z M238.2,76.2
		c-3.7-3.7-9.1-5.5-16.2-5.5c-6.5,0-11.6,2-15.4,6c-3.4,3.7-5.1,8.6-5.1,14.5s1.7,10.7,5.1,14.3c3.7,3.9,8.8,5.8,15.4,5.8
		c6.6,0,11.9-1.9,15.8-5.7c3.9-3.8,5.9-8.6,5.9-14.4C243.8,84.8,241.9,79.8,238.2,76.2z"/>
</g>
<g>
	<path fill="#333333" d="M78.2,62.1c-3.5-4.8-7.5-8.2-11.9-10.2c-4.4-2-9.9-3-16.5-3c-10.7,0-19.2,2.8-25.4,8.4
		C18.1,62.9,15,70.4,15,79.9c0,9.4,3,16.8,8.9,22.4c5.9,5.6,14.1,8.3,24.6,8.3c6.3,0,11.7-1,16.2-3.1c4.5-2.1,8.7-5.5,12.6-10.3
		l9.8,5.8C77.2,115,64.4,121,48.6,121c-13.7,0-24.6-3.7-32.8-11C7.7,102.6,3.6,92.8,3.6,80.4c0-12.8,4.2-23,12.6-30.5
		c8.4-7.5,19.6-11.3,33.6-11.3c16.4,0,29,5.9,38,17.8L78.2,62.1z"/>
	<path fill="#333333" d="M166.5,80.7c6.2,3.9,9.3,9.8,9.3,17.6v21.8h-11.4V98.7c0-8.3-6.5-12.4-19.5-12.4h-29.1v33.9h-11.4V39.4
		h41.6c20.7,0,31.1,7.5,31.1,22.4C177,70.3,173.5,76.6,166.5,80.7z M146.1,49.7h-30.4v26.1h28.5c6.4,0,11.4-1.1,15.1-3.2
		c4.1-2.4,6.2-5.9,6.2-10.5C165.6,53.9,159.1,49.7,146.1,49.7z"/>
</g>
<g>
	<path fill="#474747" d="M205.3,74.8c8.7-8.7,22.9-8.7,31.6,0c8.7,8.7,8.7,22.9,0,31.6c-8.7,8.7-22.9,8.7-31.6,0
		C196.6,97.6,196.6,83.5,205.3,74.8"/>
	<path d="M205.3,74.8c0,0,0.1-0.1,0.3-0.3c0.2-0.2,0.5-0.5,0.9-0.8c0.8-0.7,2-1.6,3.6-2.6c0.2-0.1,0.4-0.2,0.6-0.4
		c0.2-0.1,0.5-0.2,0.7-0.3c0.2-0.1,0.5-0.2,0.7-0.3c0.3-0.1,0.5-0.2,0.8-0.3c1.1-0.4,2.3-0.8,3.6-1.1c2.6-0.6,5.7-0.7,9-0.1
		c1.6,0.3,3.3,0.8,4.9,1.5c1.6,0.7,3.3,1.7,4.8,2.8c0.2,0.1,0.4,0.3,0.6,0.4c0.2,0.2,0.4,0.3,0.6,0.5c0.2,0.2,0.4,0.3,0.5,0.5
		l0.3,0.2c0,0,0,0,0,0l0,0l0.1,0.1l0.1,0.1c0.2,0.2,0.3,0.3,0.5,0.5c0.2,0.2,0.3,0.4,0.5,0.6c0.3,0.4,0.6,0.8,1,1.2
		c0.6,0.8,1.2,1.6,1.7,2.5c0.3,0.4,0.5,0.9,0.7,1.4c0.1,0.2,0.2,0.5,0.3,0.7l0.2,0.4l0.1,0.4c0.8,2,1.3,4.1,1.5,6.2
		c0,0.3,0,0.5,0.1,0.8c0,0.3,0,0.5,0,0.8l0,0.4l0,0.4c0,0.3,0,0.6,0,0.8c0,1.1-0.2,2.2-0.4,3.3c-0.8,4.4-3,8.5-6.2,11.8
		c-3.2,3.2-7.4,5.4-11.8,6.2c-1.1,0.2-2.2,0.3-3.3,0.4c-0.3,0-0.6,0-0.8,0l-0.4,0l-0.4,0c-0.3,0-0.5,0-0.8,0c-0.3,0-0.5,0-0.8-0.1
		c-2.2-0.2-4.3-0.7-6.2-1.5l-0.4-0.1l-0.4-0.2c-0.2-0.1-0.5-0.2-0.7-0.3c-0.5-0.2-0.9-0.5-1.4-0.7c-0.9-0.5-1.7-1.1-2.5-1.7
		c-0.4-0.3-0.8-0.6-1.2-1c-0.2-0.2-0.4-0.3-0.6-0.5c-0.2-0.2-0.4-0.3-0.5-0.5l-0.1-0.1l-0.1-0.1l0,0c0,0,0,0,0,0l-0.2-0.3
		c-0.2-0.2-0.3-0.4-0.5-0.5c-0.2-0.2-0.3-0.4-0.5-0.6c-0.2-0.2-0.3-0.4-0.5-0.6c-1.2-1.5-2.1-3.1-2.8-4.8c-0.7-1.6-1.2-3.3-1.5-4.9
		c-0.6-3.3-0.4-6.3,0.1-9c0.3-1.3,0.7-2.5,1.1-3.6c0.1-0.3,0.2-0.5,0.3-0.8c0.1-0.3,0.2-0.5,0.3-0.7c0.1-0.2,0.2-0.5,0.3-0.7
		c0.1-0.2,0.2-0.4,0.4-0.6c0.9-1.7,1.9-2.9,2.6-3.6c0.3-0.4,0.6-0.7,0.8-0.9C205.2,74.9,205.3,74.8,205.3,74.8 M205.3,74.8
		c0,0-0.1,0.1-0.3,0.3c-0.2,0.2-0.5,0.5-0.8,0.9c-0.7,0.8-1.6,2-2.6,3.6c-0.9,1.7-1.9,3.8-2.4,6.5c-0.5,2.6-0.6,5.7,0.1,8.9
		c0.3,1.6,0.9,3.2,1.6,4.8c0.7,1.6,1.7,3.1,2.9,4.6c0.1,0.2,0.3,0.4,0.5,0.5c0.2,0.2,0.3,0.3,0.5,0.5c0.2,0.2,0.3,0.3,0.5,0.5
		l0.3,0.3l0.3,0.2c0.2,0.2,0.4,0.3,0.5,0.5c0.2,0.2,0.4,0.3,0.6,0.5c0.4,0.3,0.8,0.6,1.1,0.9c0.8,0.6,1.6,1.1,2.5,1.5
		c0.4,0.2,0.9,0.4,1.3,0.7c0.2,0.1,0.5,0.2,0.7,0.3l0.3,0.1l0.4,0.1c1.9,0.7,3.9,1.1,5.9,1.3c1,0.1,2.1,0.1,3.1,0
		c1-0.1,2.1-0.2,3.1-0.4c2-0.4,4-1.2,5.9-2.2c0.9-0.5,1.8-1.1,2.7-1.7l0.6-0.5c0.1-0.1,0.2-0.2,0.3-0.2l0.3-0.3l0.3-0.3
		c0.1-0.1,0.2-0.2,0.3-0.3l0.6-0.6c0.7-0.8,1.4-1.5,2.1-2.4c0.6-0.9,1.2-1.7,1.7-2.7c1-1.9,1.7-3.9,2.2-5.9c0.2-1,0.4-2.1,0.4-3.1
		c0.1-1,0.1-2.1,0-3.1c-0.2-2.1-0.6-4.1-1.3-5.9l-0.1-0.4l-0.1-0.3c-0.1-0.2-0.2-0.5-0.3-0.7c-0.2-0.4-0.4-0.9-0.7-1.3
		c-0.5-0.9-1-1.7-1.5-2.5c-0.3-0.4-0.6-0.8-0.9-1.1c-0.2-0.2-0.3-0.4-0.5-0.5c-0.2-0.2-0.3-0.4-0.5-0.5l-0.1-0.1l-0.1-0.1l0,0
		c0,0,0,0,0,0l-0.3-0.2c-0.2-0.2-0.3-0.3-0.5-0.5c-0.2-0.2-0.4-0.3-0.5-0.5c-0.2-0.2-0.3-0.3-0.5-0.5c-0.4-0.3-0.7-0.6-1.1-0.8
		c-0.2-0.1-0.4-0.3-0.6-0.4c-0.2-0.1-0.4-0.2-0.6-0.4l-0.3-0.2l-0.3-0.2c-0.2-0.1-0.4-0.2-0.6-0.3c-0.2-0.1-0.4-0.2-0.6-0.3
		c-0.2-0.1-0.4-0.2-0.6-0.3c-1.6-0.7-3.2-1.3-4.8-1.6c-1.6-0.3-3.2-0.5-4.7-0.5c-1.5,0-2.9,0.2-4.2,0.4c-2.6,0.5-4.8,1.4-6.5,2.4
		c-1.7,0.9-2.9,1.9-3.6,2.6c-0.4,0.3-0.7,0.6-0.9,0.8C205.4,74.7,205.3,74.8,205.3,74.8"/>
	<path fill="#838483" d="M207.1,107.5c-8.7-8.7-8.7-22.9,0-31.6c7.4-7.4,18.7-8.5,27.3-3.4c-8.7-6.5-21.1-5.7-29,2.2
		c-8.7,8.7-8.7,22.9,0,31.6c1.3,1.3,2.8,2.5,4.3,3.4C208.7,109.1,207.9,108.3,207.1,107.5"/>
	<path d="M210,79.5c5.3-5.3,13.8-5.3,19.1,0c5.3,5.3,5.3,13.8,0,19.1c-5.3,5.3-13.8,5.3-19.1,0C204.7,93.3,204.7,84.8,210,79.5"/>
	<path fill="#636363" d="M228.1,72.8c0,1-0.8,1.7-1.7,1.7c-1,0-1.7-0.8-1.7-1.7c0-1,0.8-1.7,1.7-1.7
		C227.3,71.1,228.1,71.9,228.1,72.8"/>
	<path d="M228.1,72.8c0,0,0,0,0,0.1c0,0,0,0.1,0,0.1c0,0.1,0,0.1,0,0.2c0,0.1-0.1,0.3-0.2,0.5c-0.1,0.2-0.3,0.4-0.5,0.5
		c-0.2,0.2-0.5,0.3-0.8,0.4c-0.1,0-0.2,0-0.2,0c-0.1,0-0.1,0-0.2,0c-0.2,0-0.3,0-0.5-0.1c-0.2-0.1-0.3-0.2-0.5-0.3
		c-0.2-0.1-0.3-0.3-0.4-0.4c-0.1-0.2-0.2-0.3-0.3-0.5c0-0.1-0.1-0.2-0.1-0.3c0,0,0-0.1,0-0.1l0-0.1l0,0v0l0,0l0,0v0
		c0-0.1,0-0.2,0-0.3c0-0.1,0-0.2,0.1-0.3c0.1-0.2,0.2-0.4,0.3-0.5c0.1-0.2,0.3-0.3,0.4-0.4c0.2-0.1,0.3-0.2,0.5-0.3
		c0.3-0.1,0.7-0.1,1-0.1c0.3,0.1,0.6,0.2,0.8,0.4c0.2,0.2,0.4,0.4,0.5,0.5c0.1,0.2,0.2,0.4,0.2,0.5c0,0.1,0,0.1,0,0.2
		c0,0.1,0,0.1,0,0.1C228.1,72.8,228.1,72.8,228.1,72.8 M228.1,72.8c0,0,0,0,0-0.1c0,0,0-0.1,0-0.1c0-0.1,0-0.1,0-0.2
		c0-0.1-0.1-0.3-0.2-0.5c-0.1-0.2-0.3-0.3-0.5-0.5c-0.1-0.1-0.2-0.1-0.4-0.1c-0.1,0-0.3-0.1-0.4-0.1c-0.3,0-0.6,0.1-0.8,0.2
		c-0.2,0.1-0.5,0.3-0.6,0.6c-0.1,0.1-0.1,0.3-0.2,0.4c0,0.1-0.1,0.2-0.1,0.4c0,0,0,0,0,0v0l0,0l0,0l0,0l0,0.1c0,0,0,0.1,0,0.1
		c0,0.1,0,0.1,0,0.2c0,0.1,0.1,0.3,0.2,0.4c0.1,0.2,0.4,0.5,0.6,0.6c0.1,0.1,0.3,0.1,0.4,0.2c0.1,0,0.1,0,0.2,0c0.1,0,0.1,0,0.2,0
		c0.3,0,0.5-0.1,0.7-0.2c0.2-0.1,0.4-0.3,0.5-0.5c0.1-0.2,0.2-0.3,0.2-0.5c0-0.1,0-0.1,0-0.2c0-0.1,0-0.1,0-0.1
		C228.1,72.9,228.1,72.8,228.1,72.8"/>
	<path fill="#636363" d="M238.2,80.6c0,1-0.8,1.7-1.7,1.7c-1,0-1.7-0.8-1.7-1.7s0.8-1.7,1.7-1.7C237.4,78.8,238.2,79.6,238.2,80.6"
		/>
	<path d="M238.2,80.6c0,0,0,0,0,0.1c0,0,0,0.1,0,0.1c0,0.1,0,0.1,0,0.2c0,0.1-0.1,0.3-0.2,0.5c-0.1,0.2-0.3,0.4-0.5,0.6
		c-0.2,0.2-0.5,0.3-0.8,0.4c0,0-0.1,0-0.1,0c0,0-0.1,0-0.1,0c-0.1,0-0.1,0-0.2,0c-0.2,0-0.4,0-0.6-0.1c-0.2-0.1-0.4-0.2-0.5-0.3
		c-0.2-0.1-0.3-0.3-0.4-0.4c-0.1-0.2-0.2-0.4-0.3-0.6c0-0.1-0.1-0.2-0.1-0.3c0-0.1,0-0.1,0-0.2l0-0.1l0,0l0,0v0v0c0,0,0,0,0,0l0-0.1
		c0,0,0-0.1,0-0.2c0-0.1,0-0.2,0.1-0.3c0.1-0.2,0.2-0.4,0.3-0.6c0.1-0.2,0.3-0.3,0.4-0.4c0.2-0.1,0.3-0.2,0.5-0.3
		c0.4-0.1,0.7-0.1,1,0c0.2,0,0.3,0.1,0.5,0.2c0.1,0.1,0.3,0.2,0.4,0.2c0.4,0.4,0.6,0.8,0.7,1.1c0,0.1,0,0.1,0,0.2c0,0.1,0,0.1,0,0.1
		C238.2,80.5,238.2,80.6,238.2,80.6 M238.2,80.6c0,0,0,0,0-0.1c0,0,0-0.1,0-0.1c0-0.1,0-0.1,0-0.2c0-0.1-0.1-0.3-0.2-0.5
		c-0.1-0.2-0.3-0.3-0.5-0.4c-0.1-0.1-0.2-0.1-0.4-0.1c-0.1,0-0.3,0-0.4,0c-0.3,0-0.5,0.1-0.8,0.2c-0.2,0.1-0.4,0.3-0.5,0.6
		c-0.1,0.1-0.1,0.2-0.1,0.4c0,0.1,0,0.1,0,0.2c0,0,0,0.1,0,0.2c0,0,0,0,0,0v0l0,0l0,0l0,0l0,0c0,0,0,0.1,0,0.1c0,0.1,0,0.1,0,0.2
		c0,0.1,0.1,0.2,0.1,0.4c0.1,0.1,0.1,0.2,0.2,0.3c0.1,0.1,0.2,0.2,0.3,0.3c0.1,0.1,0.2,0.1,0.4,0.2c0.1,0,0.1,0,0.2,0
		c0,0,0.1,0,0.2,0c0.3,0,0.5-0.1,0.7-0.2c0.2-0.1,0.4-0.3,0.5-0.4c0.1-0.2,0.2-0.3,0.2-0.5c0-0.1,0-0.1,0-0.2c0-0.1,0-0.1,0-0.1
		C238.2,80.6,238.2,80.6,238.2,80.6"/>
	<path fill="#636363" d="M240.4,94c0,1-0.8,1.7-1.7,1.7c-1,0-1.7-0.8-1.7-1.7c0-1,0.8-1.7,1.7-1.7C239.6,92.2,240.4,93,240.4,94"/>
	<path d="M240.4,94c0,0,0,0,0,0.1c0,0,0,0.1,0,0.1c0,0.1,0,0.1,0,0.2c0,0.1-0.1,0.3-0.2,0.5c-0.1,0.2-0.3,0.4-0.5,0.6
		c-0.2,0.2-0.5,0.3-0.8,0.4c0,0-0.1,0-0.1,0c0,0-0.1,0-0.1,0c-0.1,0-0.1,0-0.2,0c-0.2,0-0.4,0-0.6-0.1c-0.2-0.1-0.4-0.2-0.5-0.3
		c-0.2-0.1-0.3-0.3-0.4-0.4c-0.1-0.2-0.2-0.4-0.3-0.6c0-0.1-0.1-0.2-0.1-0.3c0-0.1,0-0.1,0-0.2l0-0.1l0,0l0,0v0l0,0c0,0,0,0,0,0
		l0-0.1c0,0,0-0.1,0-0.2c0-0.1,0-0.2,0.1-0.3c0.1-0.2,0.2-0.4,0.3-0.6c0.1-0.2,0.3-0.3,0.4-0.4c0.2-0.1,0.3-0.2,0.5-0.3
		c0.4-0.1,0.7-0.1,1,0c0.2,0,0.3,0.1,0.5,0.2c0.1,0.1,0.3,0.2,0.4,0.2c0.4,0.4,0.6,0.8,0.7,1.1c0,0.1,0,0.1,0,0.2c0,0.1,0,0.1,0,0.1
		C240.4,93.9,240.4,94,240.4,94 M240.4,94c0,0,0,0,0-0.1c0,0,0-0.1,0-0.1c0-0.1,0-0.1,0-0.2c0-0.1-0.1-0.3-0.2-0.5
		c-0.1-0.2-0.3-0.3-0.5-0.4c-0.1-0.1-0.2-0.1-0.4-0.1c-0.1,0-0.3,0-0.4,0c-0.3,0-0.5,0.1-0.8,0.2c-0.2,0.1-0.4,0.3-0.5,0.6
		c-0.1,0.1-0.1,0.2-0.1,0.4c0,0.1,0,0.1,0,0.2c0,0,0,0.1,0,0.2c0,0,0,0,0,0v0l0,0l0,0l0,0l0,0c0,0,0,0.1,0,0.1c0,0.1,0,0.1,0,0.2
		c0,0.1,0.1,0.2,0.1,0.4c0.1,0.1,0.1,0.2,0.2,0.3c0.1,0.1,0.2,0.2,0.3,0.3c0.1,0.1,0.2,0.1,0.4,0.2c0.1,0,0.1,0,0.2,0
		c0,0,0.1,0,0.2,0c0.3,0,0.5-0.1,0.7-0.2c0.2-0.1,0.4-0.3,0.5-0.4c0.1-0.2,0.2-0.3,0.2-0.5c0-0.1,0-0.1,0-0.2c0-0.1,0-0.1,0-0.1
		C240.4,94,240.4,94,240.4,94"/>
	<path fill="#636363" d="M231.5,105.1c0,1-0.8,1.7-1.7,1.7c-1,0-1.7-0.8-1.7-1.7c0-1,0.8-1.7,1.7-1.7
		C230.7,103.4,231.5,104.2,231.5,105.1"/>
	<path d="M231.5,105.1c0,0,0,0,0,0.1c0,0,0,0.1,0,0.1c0,0.1,0,0.1,0,0.2c0,0.1-0.1,0.3-0.2,0.5c-0.1,0.2-0.3,0.4-0.5,0.6
		c-0.2,0.2-0.5,0.3-0.8,0.4c0,0-0.1,0-0.1,0c0,0-0.1,0-0.1,0c-0.1,0-0.1,0-0.2,0c-0.2,0-0.4,0-0.6-0.1c-0.2-0.1-0.4-0.1-0.5-0.3
		c-0.2-0.1-0.3-0.3-0.4-0.4c-0.1-0.2-0.2-0.4-0.3-0.6c0-0.1-0.1-0.2-0.1-0.3c0-0.1,0-0.1,0-0.2l0-0.1l0,0l0,0v0v0c0,0,0,0,0,0l0-0.1
		c0,0,0-0.1,0-0.2c0-0.1,0-0.2,0.1-0.3c0.1-0.2,0.2-0.4,0.3-0.6c0.1-0.2,0.3-0.3,0.4-0.4c0.2-0.1,0.3-0.2,0.5-0.3
		c0.4-0.1,0.7-0.1,1,0c0.2,0,0.3,0.1,0.5,0.2c0.1,0.1,0.3,0.2,0.4,0.2c0.4,0.4,0.6,0.8,0.7,1.1c0,0.1,0,0.1,0,0.2c0,0.1,0,0.1,0,0.1
		C231.5,105.1,231.5,105.1,231.5,105.1 M231.5,105.1c0,0,0,0,0-0.1c0,0,0-0.1,0-0.1c0-0.1,0-0.1,0-0.2c0-0.1-0.1-0.3-0.2-0.5
		c-0.1-0.2-0.3-0.3-0.5-0.4c-0.1-0.1-0.2-0.1-0.4-0.1c-0.1,0-0.3,0-0.4,0c-0.3,0-0.5,0.1-0.8,0.2c-0.2,0.1-0.4,0.3-0.5,0.6
		c-0.1,0.1-0.1,0.2-0.1,0.4c0,0.1,0,0.1,0,0.2c0,0,0,0.1,0,0.2c0,0,0,0,0,0v0l0,0l0,0l0,0l0,0c0,0,0,0.1,0,0.1c0,0.1,0,0.1,0,0.2
		c0,0.1,0.1,0.2,0.1,0.4c0.1,0.1,0.1,0.2,0.2,0.3c0.1,0.1,0.2,0.2,0.3,0.3c0.1,0.1,0.2,0.1,0.4,0.2c0.1,0,0.1,0,0.2,0
		c0,0,0.1,0,0.2,0c0.3,0,0.5-0.1,0.7-0.2c0.2-0.1,0.4-0.3,0.5-0.4c0.1-0.2,0.2-0.3,0.2-0.5c0-0.1,0-0.1,0-0.2c0-0.1,0-0.1,0-0.1
		C231.5,105.2,231.5,105.1,231.5,105.1"/>
	<path fill="#636363" d="M217.6,107.7c0,1-0.8,1.7-1.7,1.7c-1,0-1.7-0.8-1.7-1.7c0-1,0.8-1.7,1.7-1.7
		C216.9,105.9,217.6,106.7,217.6,107.7"/>
	<path d="M217.6,107.7c0,0,0,0,0,0.1c0,0,0,0.1,0,0.1c0,0.1,0,0.1,0,0.2c0,0.1-0.1,0.3-0.2,0.5c-0.1,0.2-0.3,0.4-0.5,0.6
		c-0.2,0.2-0.5,0.3-0.8,0.4c0,0-0.1,0-0.1,0c0,0-0.1,0-0.1,0c-0.1,0-0.1,0-0.2,0c-0.2,0-0.4,0-0.6-0.1c-0.2-0.1-0.4-0.1-0.5-0.3
		c-0.2-0.1-0.3-0.3-0.4-0.4c-0.1-0.2-0.2-0.4-0.3-0.6c0-0.1-0.1-0.2-0.1-0.3c0-0.1,0-0.1,0-0.2l0-0.1l0,0v0l0,0v0c0,0,0,0,0,0l0-0.1
		c0,0,0-0.1,0-0.2c0-0.1,0-0.2,0.1-0.3c0.1-0.2,0.2-0.4,0.3-0.6c0.1-0.2,0.3-0.3,0.4-0.4c0.2-0.1,0.3-0.2,0.5-0.3
		c0.4-0.1,0.7-0.1,1,0c0.2,0,0.3,0.1,0.4,0.2c0.1,0.1,0.3,0.2,0.4,0.2c0.4,0.4,0.6,0.8,0.7,1.1c0,0.1,0,0.1,0,0.2c0,0.1,0,0.1,0,0.1
		C217.6,107.6,217.6,107.7,217.6,107.7 M217.6,107.7c0,0,0,0,0-0.1c0,0,0-0.1,0-0.1c0-0.1,0-0.1,0-0.2c0-0.1-0.1-0.3-0.2-0.5
		c-0.1-0.2-0.3-0.3-0.5-0.4c-0.1-0.1-0.2-0.1-0.4-0.1c-0.1,0-0.3,0-0.4,0c-0.3,0-0.5,0.1-0.8,0.2c-0.2,0.1-0.4,0.3-0.5,0.6
		c-0.1,0.1-0.1,0.2-0.1,0.4c0,0.1,0,0.1,0,0.2c0,0,0,0.1,0,0.2c0,0,0,0,0,0v0l0,0l0,0l0,0l0,0c0,0,0,0.1,0,0.1c0,0.1,0,0.1,0,0.2
		c0,0.1,0.1,0.2,0.1,0.4c0.1,0.1,0.1,0.2,0.2,0.3c0.1,0.1,0.2,0.2,0.3,0.3c0.1,0.1,0.2,0.1,0.4,0.2c0.1,0,0.1,0,0.2,0
		c0,0,0.1,0,0.2,0c0.3,0,0.5-0.1,0.7-0.2c0.2-0.1,0.4-0.3,0.5-0.4c0.1-0.2,0.2-0.3,0.2-0.5c0-0.1,0-0.1,0-0.2c0-0.1,0-0.1,0-0.1
		C217.6,107.7,217.6,107.7,217.6,107.7"/>
	<path fill="#636363" d="M205.6,97.6c0,1-0.8,1.7-1.7,1.7c-1,0-1.7-0.8-1.7-1.7c0-1,0.8-1.7,1.7-1.7
		C204.8,95.8,205.6,96.6,205.6,97.6"/>
	<path d="M205.6,97.6c0,0,0,0,0,0.1c0,0,0,0.1,0,0.1c0,0.1,0,0.1,0,0.2c0,0.1-0.1,0.3-0.2,0.5c-0.1,0.2-0.3,0.4-0.5,0.5
		c-0.2,0.2-0.5,0.3-0.8,0.4c-0.1,0-0.2,0-0.2,0c-0.1,0-0.1,0-0.2,0c-0.2,0-0.3,0-0.5-0.1c-0.2-0.1-0.3-0.2-0.5-0.3
		c-0.2-0.1-0.3-0.3-0.4-0.4c-0.1-0.2-0.2-0.3-0.3-0.5c0-0.1-0.1-0.2-0.1-0.3c0,0,0-0.1,0-0.1l0-0.1l0,0l0,0l0,0l0,0v0
		c0-0.1,0-0.2,0-0.3c0-0.1,0-0.2,0.1-0.3c0.1-0.2,0.2-0.4,0.3-0.5c0.1-0.2,0.3-0.3,0.4-0.4c0.2-0.1,0.3-0.2,0.5-0.3
		c0.3-0.1,0.7-0.1,1-0.1c0.3,0.1,0.6,0.2,0.8,0.4c0.2,0.2,0.4,0.4,0.5,0.5c0.1,0.2,0.2,0.4,0.2,0.5c0,0.1,0,0.1,0,0.2
		c0,0.1,0,0.1,0,0.1C205.6,97.5,205.6,97.6,205.6,97.6 M205.6,97.6c0,0,0,0,0-0.1c0,0,0-0.1,0-0.1c0-0.1,0-0.1,0-0.2
		c0-0.1-0.1-0.3-0.2-0.5c-0.1-0.2-0.3-0.3-0.5-0.5c-0.1-0.1-0.2-0.1-0.4-0.1c-0.1,0-0.3-0.1-0.4-0.1c-0.3,0-0.6,0.1-0.8,0.2
		c-0.2,0.1-0.5,0.3-0.6,0.6c-0.1,0.1-0.1,0.3-0.2,0.4c0,0.1-0.1,0.2-0.1,0.4c0,0,0,0,0,0v0l0,0l0,0l0,0l0,0.1c0,0,0,0.1,0,0.1
		c0,0.1,0,0.1,0,0.2c0,0.1,0.1,0.3,0.2,0.4c0.1,0.2,0.4,0.5,0.6,0.6c0.1,0.1,0.3,0.1,0.4,0.2c0.1,0,0.1,0,0.2,0c0.1,0,0.1,0,0.2,0
		c0.3,0,0.5-0.1,0.8-0.2c0.2-0.1,0.4-0.3,0.5-0.5c0.1-0.2,0.2-0.3,0.2-0.5c0-0.1,0-0.1,0-0.2c0-0.1,0-0.1,0-0.1
		C205.6,97.6,205.6,97.6,205.6,97.6"/>
	<path fill="#FFFFFF" d="M205.6,81.9c0,1-0.8,1.7-1.7,1.7c-1,0-1.7-0.8-1.7-1.7c0-1,0.8-1.7,1.7-1.7C204.8,80.2,205.6,81,205.6,81.9
		"/>
	<path d="M205.6,81.9c0,0,0,0,0,0.1c0,0,0,0.1,0,0.1c0,0.1,0,0.1,0,0.2c0,0.1-0.1,0.3-0.2,0.5c-0.1,0.2-0.2,0.4-0.5,0.6
		c-0.2,0.2-0.5,0.3-0.8,0.4c0,0-0.1,0-0.1,0l-0.1,0l0,0c0,0,0,0,0,0l0,0h0l0,0c-0.1,0-0.1,0-0.3,0c-0.1,0-0.1,0-0.2,0l-0.1,0
		c-0.1,0-0.2,0-0.3-0.1c-0.2-0.1-0.4-0.1-0.6-0.3c-0.2-0.1-0.3-0.3-0.5-0.4c-0.1-0.2-0.2-0.4-0.3-0.6c0-0.1-0.1-0.2-0.1-0.3
		c0-0.1,0-0.1,0-0.2l0-0.1l0,0l0,0v0v0c0,0,0,0,0,0l0-0.1c0,0,0,0,0-0.1l0-0.1c0-0.1,0.1-0.2,0.1-0.3c0.1-0.2,0.2-0.4,0.3-0.6
		c0.1-0.2,0.3-0.3,0.5-0.4c0.2-0.1,0.4-0.2,0.6-0.3c0.2-0.1,0.4-0.1,0.6-0.1c0.1,0,0.2,0,0.3,0l0,0h0l0,0c0,0,0,0,0,0l0,0l0.1,0
		c0,0,0.1,0,0.1,0c0.2,0.1,0.3,0.1,0.5,0.2c0.1,0.1,0.3,0.2,0.4,0.3c0.2,0.2,0.4,0.4,0.5,0.6c0.1,0.2,0.2,0.4,0.2,0.5
		c0,0.1,0,0.1,0,0.2c0,0.1,0,0.1,0,0.1C205.6,81.9,205.6,81.9,205.6,81.9 M205.6,81.9c0,0,0,0,0-0.1c0,0,0-0.1,0-0.1
		c0-0.1,0-0.1,0-0.2c0-0.1-0.1-0.3-0.2-0.5c-0.1-0.2-0.3-0.3-0.5-0.4c-0.1,0-0.2-0.1-0.4-0.1c-0.1,0-0.3,0-0.4,0c0,0-0.1,0-0.1,0
		l-0.1,0l0,0c0,0,0,0,0,0h0l0,0l0,0c-0.1,0-0.1,0-0.2,0.1c-0.1,0-0.2,0.1-0.3,0.2c-0.2,0.1-0.4,0.3-0.5,0.5
		c-0.1,0.1-0.1,0.2-0.1,0.3c0,0.1,0,0.1,0,0.2c0,0,0,0,0,0c0,0,0,0,0,0.1l0,0.1c0-0.1,0,0,0,0v0l0,0l0,0l0,0l0,0c0,0,0,0.1,0,0.1
		c0,0.1,0,0.1,0,0.2c0,0.1,0.1,0.2,0.1,0.3c0.1,0.1,0.1,0.2,0.2,0.3c0.1,0.1,0.2,0.2,0.3,0.2c0.1,0,0.1,0.1,0.2,0.1l0.1,0
		c0,0,0.1,0,0.1,0c0,0,0.1,0,0.2,0.1l0,0l0,0l0,0c0,0,0,0,0,0l0,0l0,0c0,0,0.1,0,0.1,0c0.3,0,0.5,0,0.7-0.1c0.2-0.1,0.4-0.3,0.5-0.4
		c0.1-0.2,0.2-0.3,0.2-0.5c0-0.1,0-0.1,0-0.2c0-0.1,0-0.1,0-0.1C205.6,82,205.6,81.9,205.6,81.9"/>
	<path fill="#636363" d="M214.2,73c0,1-0.8,1.7-1.7,1.7c-1,0-1.7-0.8-1.7-1.7c0-1,0.8-1.7,1.7-1.7C213.4,71.3,214.2,72,214.2,73"/>
	<path d="M214.2,73c0,0,0,0,0,0.1c0,0,0,0.1,0,0.1c0,0.1,0,0.1,0,0.2c0,0.1-0.1,0.3-0.2,0.5c-0.1,0.2-0.3,0.4-0.5,0.5
		c-0.2,0.2-0.5,0.3-0.8,0.4c-0.1,0-0.2,0-0.2,0c-0.1,0-0.1,0-0.2,0c-0.2,0-0.3,0-0.5-0.1c-0.2-0.1-0.3-0.2-0.5-0.3
		c-0.2-0.1-0.3-0.3-0.4-0.4c-0.1-0.2-0.2-0.3-0.3-0.5c0-0.1-0.1-0.2-0.1-0.3c0,0,0-0.1,0-0.1l0-0.1l0,0v0l0,0l0,0v0
		c0-0.1,0-0.2,0-0.3c0-0.1,0-0.2,0.1-0.3c0.1-0.2,0.2-0.4,0.3-0.5c0.1-0.2,0.3-0.3,0.4-0.4c0.2-0.1,0.3-0.2,0.5-0.3
		c0.3-0.1,0.7-0.1,1-0.1c0.3,0.1,0.6,0.2,0.8,0.4c0.2,0.2,0.4,0.4,0.5,0.5c0.1,0.2,0.2,0.4,0.2,0.5c0,0.1,0,0.1,0,0.2
		c0,0.1,0,0.1,0,0.1C214.2,73,214.2,73,214.2,73 M214.2,73c0,0,0,0,0-0.1c0,0,0-0.1,0-0.1c0-0.1,0-0.1,0-0.2c0-0.1-0.1-0.3-0.2-0.5
		c-0.1-0.2-0.3-0.3-0.5-0.5c-0.1-0.1-0.2-0.1-0.4-0.1c-0.1,0-0.3-0.1-0.4-0.1c-0.3,0-0.6,0.1-0.8,0.2c-0.2,0.1-0.5,0.3-0.6,0.6
		c-0.1,0.1-0.1,0.3-0.2,0.4c0,0.1-0.1,0.2-0.1,0.4c0,0,0,0,0,0v0l0,0l0,0l0,0l0,0.1c0,0,0,0.1,0,0.1c0,0.1,0,0.1,0,0.2
		c0,0.1,0.1,0.3,0.2,0.4c0.1,0.2,0.4,0.5,0.6,0.6c0.1,0.1,0.3,0.1,0.4,0.2c0.1,0,0.1,0,0.2,0c0.1,0,0.1,0,0.2,0
		c0.3,0,0.5-0.1,0.7-0.2c0.2-0.1,0.4-0.3,0.5-0.5c0.1-0.2,0.2-0.3,0.2-0.5c0-0.1,0-0.1,0-0.2c0-0.1,0-0.1,0-0.1
		C214.2,73,214.2,73,214.2,73"/>
	<path fill="#466D03" d="M219.7,101L219.7,101c-0.1,0-0.1,0-0.1,0l-0.1,0l-0.4,0c-0.3,0-0.4,0-0.6,0l-0.5,0l-0.4,0l-0.4-0.1
		c-0.1,0-0.3,0-0.4-0.1c-0.3,0-0.5-0.1-0.8-0.1c-1-0.2-1.9-0.4-2.8-0.6c-1.8-0.5-3.6-1.1-5.2-1.9l-0.6-0.3l-0.6-0.3
		c-0.4-0.2-0.8-0.4-1.2-0.6l-1.2-0.7l-0.6-0.3l-0.6-0.4l-1.1-0.7c-0.4-0.2-0.7-0.5-1.1-0.8l-0.5-0.4c-0.2-0.1-0.4-0.3-0.5-0.4
		l-1-0.8c-2.7-2.2-5-4.7-7-7.3c-0.2-0.3-0.5-0.7-0.7-1l-0.7-1l-0.7-1l-0.2-0.3l-0.2-0.3l-0.3-0.5l-0.6-1l-0.3-0.5l-0.1-0.3l-0.1-0.3
		l-1.1-2.1c-0.2-0.3-0.3-0.7-0.5-1.1l-0.5-1.1l-0.5-1.1c-0.1-0.2-0.1-0.4-0.2-0.5l-0.2-0.5l-0.8-2.1c-0.2-0.7-0.4-1.4-0.7-2.1
		c-0.2-0.7-0.4-1.4-0.6-2.1l-0.5-2.1c-0.2-0.7-0.3-1.4-0.4-2.1L182,60c-0.1-0.7-0.2-1.4-0.3-2.1c-0.1-0.7-0.2-1.4-0.3-2.1l-0.4-4.2
		l-0.2-4.1c0-1.4-0.1-2.7-0.1-4.1l0-0.5l0-0.1v-0.1v0c0,0,0-0.1,0,0.1l0-0.2l0-1l0-1l0-0.8l0-0.8c0-0.1,0-0.3,0-0.4l0-0.4
		c0-0.6-0.1-1.2-0.1-1.7c-0.2-2.3-0.5-4.5-0.9-6.7c-0.1-0.5-0.2-1.1-0.4-1.6c-0.1-0.3-0.1-0.5-0.2-0.8c-0.1-0.3-0.1-0.5-0.2-0.8
		c-0.2-0.5-0.3-1-0.5-1.5c-0.1-0.2-0.2-0.5-0.3-0.7l-0.3-0.7c-0.4-0.9-0.9-1.9-1.4-2.7c-0.5-0.8-1.1-1.6-1.7-2.4
		c-1.3-1.5-2.8-2.7-4.6-3.6c-1.8-0.9-3.8-1.4-6-1.7c-1.1-0.1-2.2-0.2-3.3-0.1c-1.1,0-2.3,0.1-3.4,0.3c-1.2,0.2-2.3,0.4-3.5,0.7
		c-0.6,0.1-1.1,0.3-1.7,0.5c-0.3,0.1-0.6,0.2-0.8,0.3l-0.4,0.1l-0.2,0.1l-0.1,0l-0.1,0l-0.2,0.1c-0.1,0-0.1,0-0.1,0l-0.1,0l-0.2,0.1
		l-0.5,0.1c-0.3,0.1-0.6,0.2-0.9,0.2c-0.6,0.1-1.2,0.3-1.8,0.4c-1.2,0.2-2.4,0.4-3.7,0.5c-1.2,0.1-2.5,0.1-3.8-0.1
		c-1.3-0.2-2.6-0.5-3.8-1c-0.6-0.3-1.2-0.6-1.8-1c-0.5-0.4-1-0.9-1.5-1.4c-0.4-0.5-0.8-1.1-1.1-1.7c-0.3-0.6-0.5-1.2-0.7-1.8
		c-0.2-0.6-0.3-1.2-0.3-1.8c0-0.3-0.1-0.6-0.1-0.9c0-0.3,0-0.6,0-0.9c0-0.3,0-0.6,0-0.9c0-0.3,0.1-0.6,0.1-0.9l0.1-0.9l0-0.2
		c0-0.1,0-0.1,0.1-0.2c0.1-0.1,0.2-0.3,0.5-0.4c0.3,0.2,0.4,0.3,0.4,0.5c0,0.1,0,0.1,0,0.2v0.2l0,0.8c0,0.3,0,0.6,0.1,0.8
		c0,0.3,0.1,0.5,0.1,0.8c0,0.3,0.1,0.5,0.1,0.8c0,0.3,0.1,0.5,0.2,0.8c0.1,0.5,0.3,1,0.5,1.5c0.2,0.5,0.4,0.9,0.7,1.3
		c0.3,0.4,0.6,0.8,0.9,1.1c0.7,0.6,1.5,1,2.4,1.3c0.9,0.2,1.9,0.3,2.9,0.3c1,0,2-0.2,3-0.4c1-0.2,2-0.5,3-0.9c0.5-0.2,1-0.4,1.5-0.6
		c0.2-0.1,0.5-0.2,0.7-0.3l0.3-0.2l0.2-0.1l0.1,0c0,0,0.1,0,0.1,0l-0.2,0.1l0.5-0.3l0.5-0.3c0.3-0.2,0.6-0.3,0.9-0.5
		c0.6-0.3,1.2-0.6,1.9-0.9c1.3-0.5,2.6-1,3.9-1.4c1.3-0.4,2.7-0.8,4.1-1c1.4-0.3,2.8-0.4,4.3-0.5c2.9-0.1,6,0.1,9,1.1
		c1.5,0.5,3,1.1,4.4,1.8c1.4,0.8,2.7,1.7,3.9,2.7c1.2,1,2.3,2.1,3.4,3.3c1,1.2,1.9,2.4,2.7,3.7l0.6,1c0.2,0.3,0.4,0.7,0.6,1
		c0.4,0.7,0.7,1.3,1,2c0.2,0.3,0.3,0.7,0.5,1c0.1,0.3,0.3,0.7,0.4,1c0.3,0.7,0.6,1.3,0.8,2c1,2.7,1.8,5.4,2.4,8.2
		c0.2,0.7,0.3,1.4,0.4,2.1l0.1,0.5c0,0.2,0.1,0.3,0.1,0.5l0.2,1.1l0.2,1.1l0.2,0.9l0.1,0.9l0,0.2c0,0.2,0,0.1,0,0.1l0,0l0,0.1l0,0.1
		l0.1,0.4c0.2,1.2,0.4,2.4,0.6,3.5l0.7,3.5l0.9,3.4l0.5,1.6c0.2,0.5,0.3,1.1,0.5,1.6l0.6,1.6c0.2,0.5,0.4,1.1,0.6,1.6
		c0.4,1,0.8,2,1.3,3c0.2,0.5,0.5,1,0.7,1.4l0.8,1.4l0.2,0.3c0.1,0.1,0.1,0.2,0.2,0.3l0.4,0.7l0.4,0.6c0.1,0.2,0.3,0.4,0.4,0.6
		l0.9,1.2l0.1,0.2l0.1,0.1l0.2,0.3l0.5,0.6l0.2,0.3l0.1,0.1l0.1,0.1l0.5,0.5l0.5,0.5c0.2,0.2,0.3,0.3,0.5,0.5
		c1.3,1.3,2.7,2.3,4.1,3.1l0.5,0.3c0.1,0.1,0.2,0.1,0.3,0.1l0.3,0.1c0.2,0.1,0.4,0.2,0.5,0.3l0.5,0.2l0.3,0.1l0.3,0.1
		c0.2,0.1,0.4,0.1,0.5,0.2l0.5,0.2l0.3,0.1l0.3,0.1c0.7,0.2,1.4,0.3,2.1,0.4c0.3,0,0.6,0,0.9,0l0.2,0c0,0,0.1,0,0.1,0l0.1,0l0.1,0
		c0,0,0,0,0,0c0,0,0,0-0.1,0l-0.1,0l0,0c0,0,0,0,0,0l0.1,0l0.1,0c6.6-0.5,12.3,4.4,12.8,11c0.5,6.6-4.4,12.3-11,12.8
		C220.8,101,220.2,101,219.7,101"/>
	<path fill="#466D03" d="M219.7,101L219.7,101c-0.1,0-0.1,0-0.1,0l-0.1,0l-0.4,0c-0.3,0-0.4,0-0.6,0l-0.5,0l-0.4,0l-0.4-0.1
		c-0.1,0-0.3,0-0.4-0.1c-0.3,0-0.5-0.1-0.8-0.1c-1-0.2-1.9-0.4-2.8-0.6c-1.8-0.5-3.6-1.1-5.2-1.9l-0.6-0.3l-0.6-0.3
		c-0.4-0.2-0.8-0.4-1.2-0.6l-1.2-0.7l-0.6-0.3l-0.6-0.4l-1.1-0.7c-0.4-0.2-0.7-0.5-1.1-0.8l-0.5-0.4c-0.2-0.1-0.4-0.3-0.5-0.4
		l-1-0.8c-2.7-2.2-5-4.7-7-7.3c-0.2-0.3-0.5-0.7-0.7-1l-0.7-1l-0.7-1l-0.2-0.3l-0.2-0.3l-0.3-0.5l-0.6-1l-0.3-0.5l-0.1-0.3l-0.1-0.3
		l-1.1-2.1c-0.2-0.3-0.3-0.7-0.5-1.1l-0.5-1.1l-0.5-1.1c-0.1-0.2-0.1-0.4-0.2-0.5l-0.2-0.5l-0.8-2.1c-0.2-0.7-0.4-1.4-0.7-2.1
		c-0.2-0.7-0.4-1.4-0.6-2.1l-0.5-2.1c-0.2-0.7-0.3-1.4-0.4-2.1L182,60c-0.1-0.7-0.2-1.4-0.3-2.1c-0.1-0.7-0.2-1.4-0.3-2.1l-0.4-4.2
		l-0.2-4.1c0-1.4-0.1-2.7-0.1-4.1l0-0.5l0-0.1v-0.1v0c0,0,0-0.1,0,0.1l0-0.2l0-1l0-1l0-0.8l0-0.8c0-0.1,0-0.3,0-0.4l0-0.4
		c0-0.6-0.1-1.2-0.1-1.7c-0.2-2.3-0.5-4.5-0.9-6.7c-0.1-0.5-0.2-1.1-0.4-1.6c-0.1-0.3-0.1-0.5-0.2-0.8c-0.1-0.3-0.1-0.5-0.2-0.8
		c-0.2-0.5-0.3-1-0.5-1.5c-0.1-0.2-0.2-0.5-0.3-0.7l-0.3-0.7c-0.4-0.9-0.9-1.9-1.4-2.7c-0.5-0.8-1.1-1.6-1.7-2.4
		c-1.3-1.5-2.8-2.7-4.6-3.6c-1.8-0.9-3.8-1.4-6-1.7c-1.1-0.1-2.2-0.2-3.3-0.1c-1.1,0-2.3,0.1-3.4,0.3c-1.2,0.2-2.3,0.4-3.5,0.7
		c-0.6,0.1-1.1,0.3-1.7,0.5c-0.3,0.1-0.6,0.2-0.8,0.3l-0.4,0.1l-0.2,0.1l-0.1,0l-0.1,0l-0.2,0.1c-0.1,0-0.1,0-0.1,0l-0.1,0l-0.2,0.1
		l-0.5,0.1c-0.3,0.1-0.6,0.2-0.9,0.2c-0.6,0.1-1.2,0.3-1.8,0.4c-1.2,0.2-2.4,0.4-3.7,0.5c-1.2,0.1-2.5,0.1-3.8-0.1
		c-1.3-0.2-2.6-0.5-3.8-1c-0.6-0.3-1.2-0.6-1.8-1c-0.5-0.4-1-0.9-1.5-1.4c-0.4-0.5-0.8-1.1-1.1-1.7c-0.3-0.6-0.5-1.2-0.7-1.8
		c-0.2-0.6-0.3-1.2-0.3-1.8c0-0.3-0.1-0.6-0.1-0.9c0-0.3,0-0.6,0-0.9c0-0.3,0-0.6,0-0.9c0-0.3,0.1-0.6,0.1-0.9l0.1-0.9l0-0.2
		c0-0.1,0-0.1,0.1-0.2c0.1-0.1,0.2-0.3,0.5-0.4c0.3,0.2,0.4,0.3,0.4,0.5c0,0.1,0,0.1,0,0.2v0.2l0,0.8c0,0.3,0,0.6,0.1,0.8
		c0,0.3,0.1,0.5,0.1,0.8c0,0.3,0.1,0.5,0.1,0.8c0,0.3,0.1,0.5,0.2,0.8c0.1,0.5,0.3,1,0.5,1.5c0.2,0.5,0.4,0.9,0.7,1.3
		c0.3,0.4,0.6,0.8,0.9,1.1c0.7,0.6,1.5,1,2.4,1.3c0.9,0.2,1.9,0.3,2.9,0.3c1,0,2-0.2,3-0.4c1-0.2,2-0.5,3-0.9c0.5-0.2,1-0.4,1.5-0.6
		c0.2-0.1,0.5-0.2,0.7-0.3l0.3-0.2l0.2-0.1l0.1,0c0,0,0.1,0,0.1,0l-0.2,0.1l0.5-0.3l0.5-0.3c0.3-0.2,0.6-0.3,0.9-0.5
		c0.6-0.3,1.2-0.6,1.9-0.9c1.3-0.5,2.6-1,3.9-1.4c1.3-0.4,2.7-0.8,4.1-1c1.4-0.3,2.8-0.4,4.3-0.5c2.9-0.1,6,0.1,9,1.1
		c1.5,0.5,3,1.1,4.4,1.8c1.4,0.8,2.7,1.7,3.9,2.7c1.2,1,2.3,2.1,3.4,3.3c1,1.2,1.9,2.4,2.7,3.7l0.6,1c0.2,0.3,0.4,0.7,0.6,1
		c0.4,0.7,0.7,1.3,1,2c0.2,0.3,0.3,0.7,0.5,1c0.1,0.3,0.3,0.7,0.4,1c0.3,0.7,0.6,1.3,0.8,2c1,2.7,1.8,5.4,2.4,8.2
		c0.2,0.7,0.3,1.4,0.4,2.1l0.1,0.5c0,0.2,0.1,0.3,0.1,0.5l0.2,1.1l0.2,1.1l0.2,0.9l0.1,0.9l0,0.2c0,0.2,0,0.1,0,0.1l0,0l0,0.1l0,0.1
		l0.1,0.4c0.2,1.2,0.4,2.4,0.6,3.5l0.7,3.5l0.9,3.4l0.5,1.6c0.2,0.5,0.3,1.1,0.5,1.6l0.6,1.6c0.2,0.5,0.4,1.1,0.6,1.6
		c0.4,1,0.8,2,1.3,3c0.2,0.5,0.5,1,0.7,1.4l0.8,1.4l0.2,0.3c0.1,0.1,0.1,0.2,0.2,0.3l0.4,0.7l0.4,0.6c0.1,0.2,0.3,0.4,0.4,0.6
		l0.9,1.2l0.1,0.2l0.1,0.1l0.2,0.3l0.5,0.6l0.2,0.3l0.1,0.1l0.1,0.1l0.5,0.5l0.5,0.5c0.2,0.2,0.3,0.3,0.5,0.5
		c1.3,1.3,2.7,2.3,4.1,3.1l0.5,0.3c0.1,0.1,0.2,0.1,0.3,0.1l0.3,0.1c0.2,0.1,0.4,0.2,0.5,0.3l0.5,0.2l0.3,0.1l0.3,0.1
		c0.2,0.1,0.4,0.1,0.5,0.2l0.5,0.2l0.3,0.1l0.3,0.1c0.7,0.2,1.4,0.3,2.1,0.4c0.3,0,0.6,0,0.9,0l0.2,0c0,0,0.1,0,0.1,0l0.1,0l0.1,0
		c0,0,0,0,0,0c0,0,0,0-0.1,0l-0.1,0l0,0c0,0,0,0,0,0l0.1,0l0.1,0c6.6-0.5,12.3,4.4,12.8,11c0.5,6.6-4.4,12.3-11,12.8
		C220.8,101,220.2,101,219.7,101"/>
	<path fill="#3E540E" d="M225.3,93.7c-0.6,0-1.2,0-1.8,0l-0.1,0c0,0,0,0,0,0l-0.1,0l-0.4,0c-0.3,0-0.4,0-0.6,0l-0.5,0l-0.4,0l-0.4,0
		c-0.1,0-0.3,0-0.4-0.1c-0.3,0-0.5-0.1-0.8-0.1c-1-0.2-2-0.4-3-0.6c-1.9-0.5-3.7-1.1-5.4-1.8l-0.6-0.3l-0.6-0.3
		c-0.4-0.2-0.8-0.4-1.3-0.6l-1.2-0.6l-0.6-0.3l-0.6-0.3l-1.2-0.7c-0.4-0.2-0.7-0.5-1.1-0.7l-0.6-0.4c-0.2-0.1-0.4-0.2-0.5-0.4
		l-1.1-0.8c-2.8-2.1-5.2-4.5-7.2-7c-0.3-0.3-0.5-0.6-0.8-0.9l-0.7-1l-0.7-1l-0.2-0.2l-0.2-0.2l-0.3-0.5l-0.6-1l-0.3-0.5l-0.2-0.2
		l-0.1-0.2l-1.1-2c-0.2-0.3-0.3-0.7-0.5-1l-0.5-1l-0.5-1c-0.1-0.2-0.1-0.3-0.2-0.5l-0.2-0.5l-0.8-2c-0.2-0.7-0.5-1.3-0.7-2
		c-0.2-0.7-0.5-1.3-0.6-2l-0.5-2c-0.2-0.7-0.3-1.3-0.5-2l-0.4-2c-0.1-0.7-0.2-1.3-0.3-2c-0.1-0.7-0.2-1.3-0.3-2l-0.4-3.9l-0.2-3.9
		c0-1.3-0.1-2.6-0.1-3.9l0-0.5l0-0.1v-0.1v0c0,0,0-0.1,0,0.1l0-0.2l0-0.9l0-0.9l0-0.8l0-0.8c0-0.1,0-0.3,0-0.4l0-0.4
		c0-0.5-0.1-1.1-0.1-1.6c-0.2-2.2-0.5-4.3-0.9-6.4c-0.1-0.5-0.3-1-0.4-1.5c-0.1-0.3-0.1-0.5-0.2-0.7c-0.1-0.2-0.1-0.5-0.2-0.7
		c-0.2-0.5-0.3-1-0.5-1.4c-0.1-0.2-0.2-0.5-0.3-0.7l-0.3-0.7c-0.4-0.9-0.9-1.8-1.4-2.6c-0.5-0.8-1.1-1.6-1.8-2.3
		c-1.3-1.4-2.9-2.5-4.8-3.4c-1.8-0.8-4-1.4-6.2-1.6c-1.1-0.1-2.3-0.2-3.5-0.1c-1.2,0-2.4,0.1-3.6,0.3c-1.2,0.2-2.4,0.4-3.6,0.6
		c-0.6,0.1-1.2,0.3-1.8,0.4c-0.3,0.1-0.6,0.2-0.9,0.3l-0.4,0.1l-0.2,0.1l-0.1,0l-0.1,0l-0.2,0.1c-0.1,0-0.1,0-0.1,0l-0.1,0l-0.2,0.1
		l-0.5,0.1c-0.3,0.1-0.6,0.2-0.9,0.2c-0.6,0.1-1.2,0.3-1.9,0.4c-1.3,0.2-2.5,0.4-3.8,0.5c-1.3,0.1-2.6,0.1-3.9-0.1
		c-1.3-0.1-2.7-0.4-3.9-1c-0.6-0.3-1.3-0.6-1.8-1c-0.6-0.4-1.1-0.8-1.5-1.3c-0.4-0.5-0.8-1-1.1-1.6c-0.3-0.6-0.5-1.1-0.7-1.7
		c-0.2-0.6-0.3-1.2-0.3-1.7c0-0.3-0.1-0.6-0.1-0.9c0-0.1,0-0.2,0-0.3l0,0.1c0,0.3-0.1,0.6-0.1,0.9c0,0.3,0,0.6,0,0.9
		c0,0.3,0,0.6,0,0.9c0,0.3,0,0.6,0.1,0.9c0.1,0.6,0.2,1.2,0.3,1.8c0.2,0.6,0.4,1.2,0.7,1.8c0.3,0.6,0.6,1.2,1.1,1.7
		c0.4,0.5,0.9,1,1.5,1.4c0.5,0.4,1.1,0.7,1.8,1c1.2,0.6,2.5,0.9,3.8,1c1.3,0.2,2.5,0.2,3.8,0.1c1.2-0.1,2.5-0.2,3.7-0.5
		c0.6-0.1,1.2-0.3,1.8-0.4c0.3-0.1,0.6-0.2,0.9-0.2l0.5-0.1l0.2-0.1l0.1,0c0,0,0.1,0,0.1,0l0.2-0.1l0.1,0l0.1,0l0.2-0.1l0.4-0.1
		c0.3-0.1,0.6-0.2,0.8-0.3c0.6-0.2,1.1-0.3,1.7-0.5c1.1-0.3,2.3-0.5,3.5-0.7c1.2-0.2,2.3-0.3,3.4-0.3c1.1,0,2.3,0,3.3,0.1
		c2.2,0.2,4.2,0.8,6,1.7c1.8,0.9,3.3,2.1,4.6,3.6c0.6,0.7,1.2,1.5,1.7,2.4c0.5,0.9,1,1.8,1.4,2.7l0.3,0.7c0.1,0.2,0.2,0.5,0.3,0.7
		c0.2,0.5,0.3,1,0.5,1.5c0.1,0.3,0.1,0.5,0.2,0.8c0.1,0.3,0.2,0.5,0.2,0.8c0.1,0.5,0.3,1.1,0.4,1.6c0.4,2.2,0.7,4.4,0.9,6.7
		c0.1,0.6,0.1,1.2,0.1,1.7l0,0.4c0,0.1,0,0.3,0,0.4l0,0.8l0,0.8l0,1l0,1l0,0.2c0-0.2,0,0,0-0.1v0v0.1l0,0.1l0,0.5
		c0,1.4,0,2.7,0.1,4.1l0.2,4.1l0.4,4.2c0.1,0.7,0.2,1.4,0.3,2.1c0.1,0.7,0.2,1.4,0.3,2.1l0.4,2.1c0.1,0.7,0.3,1.4,0.4,2.1l0.5,2.1
		c0.2,0.7,0.4,1.4,0.6,2.1c0.2,0.7,0.4,1.4,0.7,2.1l0.8,2.1l0.2,0.5c0.1,0.2,0.1,0.4,0.2,0.5l0.5,1.1l0.5,1.1
		c0.2,0.4,0.3,0.7,0.5,1.1l1.1,2.1l0.1,0.3l0.1,0.3l0.3,0.5l0.6,1l0.3,0.5l0.2,0.3l0.2,0.3l0.7,1l0.7,1c0.2,0.3,0.5,0.7,0.7,1
		c2,2.6,4.3,5.1,7,7.3l1,0.8c0.2,0.1,0.3,0.3,0.5,0.4l0.5,0.4c0.4,0.3,0.7,0.5,1.1,0.8l1.1,0.7l0.6,0.4l0.6,0.3l1.2,0.7
		c0.4,0.2,0.8,0.4,1.2,0.6l0.6,0.3l0.6,0.3c1.7,0.7,3.4,1.4,5.2,1.9c0.9,0.2,1.9,0.5,2.8,0.6c0.3,0,0.5,0.1,0.8,0.1
		c0.1,0,0.3,0,0.4,0.1l0.4,0.1l0.4,0l0.5,0c0.2,0,0.3,0,0.6,0l0.4,0l0.1,0c0,0,0,0,0,0l0.1,0c0.5,0,1.2,0,1.7,0
		c5.6-0.4,9.9-4.6,10.9-9.8C230.3,92.6,228,93.5,225.3,93.7"/>
	<path fill="#739630" d="M214.7,93c2.3,0.8,3.7,2.7,3.2,4.3c-0.5,1.6-2.8,2.2-5.1,1.4c-2.3-0.8-3.7-2.7-3.2-4.3
		C210.1,92.8,212.4,92.2,214.7,93"/>
	<path fill="#739630" d="M202.3,86.8c1.8,1.6,2.4,3.9,1.4,5.1c-1.1,1.3-3.4,1-5.3-0.6c-1.8-1.6-2.4-3.9-1.4-5.1
		C198.1,85,200.4,85.3,202.3,86.8"/>
	<path fill="#739630" d="M195,79.2c1.1,1.9,0.9,4.1-0.4,4.9c-1.3,0.8-3.3-0.2-4.4-2.1c-1.1-1.9-0.9-4.1,0.4-4.9
		C191.9,76.4,193.8,77.3,195,79.2"/>
	<path fill="#739630" d="M189.4,71.1c0.5,1.6,0,3.1-1.1,3.5c-1.1,0.3-2.4-0.7-2.9-2.2c-0.5-1.6,0-3.1,1.1-3.5
		C187.6,68.5,188.9,69.5,189.4,71.1"/>
	<path fill="#739630" d="M186.2,60.8c0.5,1.6,0,3.1-1.1,3.5c-1.1,0.3-2.4-0.7-2.9-2.2c-0.5-1.6,0-3.1,1.1-3.5
		C184.4,58.2,185.7,59.2,186.2,60.8"/>
	<path fill="#739630" d="M183.6,51c-0.1,1.1-0.7,1.9-1.5,1.9c-0.7,0-1.3-0.9-1.2-2c0.1-1.1,0.7-1.9,1.5-1.9
		C183.1,49,183.6,49.9,183.6,51"/>
	<path fill="#739630" d="M182.7,41.2c-0.1,0.9-0.7,1.5-1.3,1.4c-0.6-0.1-1-0.9-0.9-1.8c0.1-0.9,0.7-1.5,1.3-1.4
		C182.5,39.5,182.9,40.3,182.7,41.2"/>
	<path fill="#739630" d="M181.9,28.9c0.3,0.9,0,1.8-0.6,1.9c-0.6,0.2-1.3-0.4-1.6-1.2c-0.3-0.9,0-1.8,0.6-1.9
		C180.9,27.4,181.6,28,181.9,28.9"/>
	<path fill="#739630" d="M179.2,20.9c0.3,0.8,0,1.6-0.6,1.8c-0.6,0.2-1.2-0.3-1.5-1.2c-0.3-0.8,0-1.6,0.6-1.8
		C178.3,19.6,178.9,20.1,179.2,20.9"/>
	<path fill="#739630" d="M172.4,12.9c0.9,0.4,1.3,1.3,1,1.9c-0.3,0.6-1.3,0.7-2.1,0.3c-0.9-0.4-1.3-1.3-1-1.9
		C170.6,12.5,171.5,12.4,172.4,12.9"/>
	<path fill="#739630" d="M164.4,10.8c1,0.1,1.7,0.8,1.7,1.5c-0.1,0.7-1,1.1-2,1c-1-0.1-1.7-0.8-1.7-1.5
		C162.5,11.1,163.4,10.6,164.4,10.8"/>
	<path fill="#739630" d="M156.7,11.1c0.7-0.2,1.4,0,1.6,0.5c0.2,0.5-0.3,1.1-1,1.3c-0.7,0.2-1.4,0-1.6-0.5
		C155.5,11.9,155.9,11.3,156.7,11.1"/>
	<path fill="#739630" d="M149.9,12.8c0.9-0.3,1.7,0,1.9,0.6c0.2,0.6-0.4,1.3-1.2,1.6c-0.9,0.3-1.7,0-1.9-0.6
		C148.5,13.8,149,13.1,149.9,12.8"/>
	<path fill="#739630" d="M142.8,14c0.8-0.2,1.5,0,1.7,0.5c0.2,0.5-0.3,1.1-1.1,1.4c-0.8,0.2-1.5,0-1.7-0.5
		C141.6,14.9,142,14.3,142.8,14"/>
	<path fill="#739630" d="M136.2,14.1c0.5,0.3,0.7,0.8,0.5,1.1c-0.2,0.3-0.7,0.3-1.2,0c-0.5-0.3-0.7-0.8-0.5-1.1
		C135.2,13.8,135.7,13.8,136.2,14.1"/>
	<path fill="#739630" d="M132.1,10.3c0.2,0.5,0,1-0.4,1.1c-0.4,0.1-0.8-0.2-0.9-0.7c-0.2-0.5,0-1,0.4-1.1
		C131.6,9.5,132,9.8,132.1,10.3"/>
	<path fill="#9CD333" d="M213.7,76.3l0.5,0.3c0.1,0.1,0.2,0.1,0.3,0.1l0.3,0.1c0.2,0.1,0.4,0.2,0.6,0.3l0.6,0.2l0.3,0.1l0.3,0.1
		c0.2,0.1,0.4,0.1,0.6,0.2l0.6,0.2l0.3,0.1l0.3,0.1c0.7,0.2,1.5,0.3,2.1,0.4c0.3,0,0.7,0,0.9,0l0.2,0c0,0,0.1,0,0.1,0l0.1,0l0.1,0
		c0,0,0,0,0,0c0,0,0.1,0-0.1,0l-0.1,0l0,0c0,0,0,0,0,0l0.1,0l0.1,0c2-0.2,3.9,0.2,5.7,0.9c-2.2-1.5-4.9-2.3-7.7-2.1l-0.1,0l-0.1,0
		c0,0,0,0,0,0l0,0l0.1,0c0.1,0,0.1,0,0.1,0c0,0,0,0,0,0l-0.1,0l-0.1,0c0,0-0.1,0-0.1,0l-0.2,0c-0.3,0-0.6,0-0.9,0
		c-0.7-0.1-1.4-0.2-2.1-0.4l-0.3-0.1l-0.3-0.1l-0.5-0.2c-0.2-0.1-0.4-0.1-0.5-0.2l-0.3-0.1l-0.3-0.1l-0.5-0.2
		c-0.2-0.1-0.4-0.2-0.5-0.3l-0.3-0.1c-0.1,0-0.2-0.1-0.3-0.1l-0.5-0.3c-0.1,0-0.1-0.1-0.2-0.1C212.4,75.5,213,75.9,213.7,76.3"/>
	<path fill="#9CD333" d="M130.6,3.6c0.3,0.2,0.4,0.3,0.5,0.5c0,0.1,0,0.1,0,0.2l0,0.2l0,0.8c0,0.3,0,0.6,0.1,0.8
		c0,0.3,0.1,0.5,0.1,0.8c0,0.3,0.1,0.5,0.1,0.8c0,0.3,0.1,0.5,0.2,0.8c0.1,0.5,0.3,1,0.5,1.5c0.2,0.5,0.5,0.9,0.7,1.3
		c0.3,0.4,0.6,0.8,1,1.1c0.7,0.6,1.6,1,2.5,1.3c0.9,0.2,1.9,0.3,3,0.3c1,0,2.1-0.2,3.1-0.4c1-0.2,2.1-0.5,3.1-0.9
		c0.5-0.2,1-0.4,1.5-0.6c0.2-0.1,0.5-0.2,0.7-0.3l0.4-0.2l0.2-0.1l0.1,0c0,0,0.1,0,0.1,0l-0.2,0.1l0.5-0.3l0.5-0.3
		c0.3-0.2,0.6-0.3,1-0.5c0.6-0.3,1.3-0.6,1.9-0.9c1.3-0.5,2.6-1,4-1.4c1.4-0.4,2.8-0.8,4.2-1c1.4-0.3,2.9-0.4,4.4-0.5
		c3-0.1,6.1,0.1,9.2,1.1c1.5,0.5,3,1.1,4.5,1.8c1.4,0.8,2.8,1.7,4,2.7c0.8,0.6,1.5,1.3,2.2,2c-1-1.1-2.1-2.2-3.3-3.2
		c-1.2-1-2.5-1.9-3.9-2.7c-1.4-0.8-2.9-1.4-4.4-1.8c-3-0.9-6.1-1.2-9-1.1c-1.5,0.1-2.9,0.3-4.3,0.5c-1.4,0.3-2.8,0.6-4.1,1
		c-1.3,0.4-2.6,0.9-3.9,1.4c-0.6,0.3-1.3,0.6-1.9,0.9c-0.3,0.2-0.6,0.3-0.9,0.5l-0.5,0.3l-0.5,0.3l0.2-0.1c0,0,0,0-0.1,0l-0.1,0
		l-0.2,0.1l-0.3,0.2c-0.2,0.1-0.5,0.2-0.7,0.3c-0.5,0.2-1,0.4-1.5,0.6c-1,0.4-2,0.7-3,0.9c-1,0.2-2,0.4-3,0.4c-1,0-2,0-2.9-0.3
		c-0.9-0.2-1.7-0.7-2.4-1.3c-0.4-0.3-0.7-0.7-0.9-1.1c-0.3-0.4-0.5-0.8-0.7-1.3c-0.2-0.5-0.4-1-0.5-1.5c-0.1-0.3-0.1-0.5-0.2-0.8
		c-0.1-0.3-0.1-0.5-0.1-0.8c0-0.3-0.1-0.5-0.1-0.8c0-0.3,0-0.6-0.1-0.8l0-0.8V3.1c0-0.1,0-0.1,0-0.2c-0.1-0.1-0.2-0.3-0.4-0.5
		c-0.3,0.1-0.4,0.2-0.5,0.4c0,0.1-0.1,0.1-0.1,0.2l0,0.2l-0.1,0.6C130.3,3.8,130.4,3.7,130.6,3.6"/>
	<g opacity="0.5">
		<g>
			<defs>
				<rect id="SVGID_1_" x="211.7" y="84.9" width="31.6" height="28"/>
			</defs>
			<clipPath id="SVGID_2_">
				<use xlink:href="#SVGID_1_"  overflow="visible"/>
			</clipPath>
			<path clip-path="url(#SVGID_2_)" d="M211.7,100.1c0,0,0.7,4.1,2.5,5.9c0,0-0.6,2.5,3,2.9c0,0,1.9,3,3.9,4c0,0,18.5,0.1,22.2-20.2
				c0,0-5.9,1.1-10.9-7.8C232.4,84.9,234.7,107.3,211.7,100.1"/>
		</g>
	</g>
	<g opacity="0.5">
		<g>
			<defs>
				<rect id="SVGID_3_" x="218.9" y="75.6" width="14.2" height="25.6"/>
			</defs>
			<clipPath id="SVGID_4_">
				<use xlink:href="#SVGID_3_"  overflow="visible"/>
			</clipPath>
			<path clip-path="url(#SVGID_4_)" d="M220,75.9c0,0,23,19.2-1.1,25c0,0,7.6,2.2,13.2-6.6c0,0,5.3-12.3-7.9-18.1
				C224.1,76.2,221.7,75.1,220,75.9"/>
		</g>
	</g>
	<path fill="#3E540E" d="M214,94.9c0.8,0.3,1.2,0.9,1,1.4c-0.2,0.5-0.9,0.7-1.7,0.5c-0.8-0.3-1.2-0.9-1-1.4
		C212.5,94.8,213.3,94.6,214,94.9"/>
	<path fill="#3E540E" d="M201.1,88.2c0.8,0.7,1,1.6,0.6,2.1c-0.5,0.5-1.4,0.4-2.2-0.2c-0.8-0.7-1-1.6-0.6-2.1
		C199.4,87.4,200.4,87.5,201.1,88.2"/>
	<path fill="#3E540E" d="M193.7,80c0.5,0.9,0.4,1.9-0.2,2.2c-0.6,0.4-1.5-0.1-2-1c-0.5-0.9-0.4-1.9,0.2-2.2
		C192.2,78.7,193.1,79.1,193.7,80"/>
	<path fill="#3E540E" d="M188.3,71.4c0.2,0.7,0,1.4-0.5,1.6c-0.5,0.2-1.1-0.3-1.3-1c-0.2-0.7,0-1.4,0.5-1.6
		C187.5,70.3,188.1,70.7,188.3,71.4"/>
	<path fill="#3E540E" d="M185.1,61.1c0.2,0.7,0,1.4-0.5,1.6c-0.5,0.2-1.1-0.3-1.3-1c-0.2-0.7,0-1.4,0.5-1.6
		C184.3,60,184.8,60.4,185.1,61.1"/>
	<path fill="#3E540E" d="M183,50.9c0,0.6-0.4,1.1-0.8,1.1c-0.4,0-0.7-0.5-0.7-1.2c0-0.6,0.4-1.1,0.8-1.1
		C182.7,49.8,183,50.3,183,50.9"/>
	<path fill="#3E540E" d="M182.2,41.1c-0.1,0.4-0.4,0.8-0.7,0.7c-0.3,0-0.5-0.4-0.4-0.9c0.1-0.4,0.4-0.8,0.7-0.7
		C182.1,40.3,182.3,40.7,182.2,41.1"/>
	<path fill="#3E540E" d="M181.3,29.1c0.1,0.4,0,0.8-0.3,0.9c-0.3,0.1-0.6-0.2-0.8-0.6c-0.1-0.4,0-0.8,0.3-0.9
		C180.8,28.4,181.1,28.6,181.3,29.1"/>
	<path fill="#3E540E" d="M178.7,21.1c0.1,0.4,0,0.8-0.3,0.9c-0.3,0.1-0.6-0.2-0.7-0.6c-0.1-0.4,0-0.8,0.3-0.9
		C178.2,20.5,178.5,20.7,178.7,21.1"/>
	<path fill="#3E540E" d="M172.1,13.4c0.5,0.2,0.7,0.7,0.5,1c-0.2,0.3-0.7,0.4-1.1,0.1c-0.5-0.2-0.7-0.7-0.5-1
		C171.2,13.2,171.7,13.1,172.1,13.4"/>
	<path fill="#3E540E" d="M164.3,11.4c0.5,0.1,0.8,0.4,0.8,0.7c0,0.3-0.5,0.5-0.9,0.5c-0.5-0.1-0.8-0.4-0.8-0.7
		C163.4,11.6,163.8,11.4,164.3,11.4"/>
	<path fill="#3E540E" d="M156.8,11.5c0.4-0.1,0.8,0,0.8,0.3c0.1,0.3-0.2,0.6-0.5,0.7c-0.4,0.1-0.8,0-0.8-0.3
		C156.2,12,156.4,11.6,156.8,11.5"/>
	<path fill="#3E540E" d="M150,13.3c0.5-0.2,1,0,1.1,0.3c0.1,0.4-0.2,0.8-0.7,0.9c-0.5,0.2-1,0-1.1-0.3
		C149.2,13.9,149.5,13.5,150,13.3"/>
	<path fill="#3E540E" d="M142.9,14.4c0.5-0.1,0.9,0,1,0.3c0.1,0.3-0.2,0.7-0.7,0.9c-0.5,0.1-0.9,0-1-0.3
		C142.1,14.9,142.4,14.5,142.9,14.4"/>
	<path fill="#3E540E" d="M136,14.3c0.3,0.2,0.4,0.5,0.3,0.7c-0.1,0.2-0.5,0.2-0.7,0c-0.3-0.2-0.4-0.5-0.3-0.7
		C135.4,14.2,135.7,14.2,136,14.3"/>
	<path fill="#3E540E" d="M131.7,10.4c0.1,0.2,0,0.3-0.1,0.4c-0.1,0-0.3-0.1-0.3-0.3c-0.1-0.2,0-0.3,0.1-0.4
		C131.5,10.2,131.7,10.3,131.7,10.4"/>
</g>
<g>
	<path fill="#333333" d="M337.2,120.2L293,81.1l-14.3,10.3v28.8h-11.4V39.4h11.4v39l55.9-39h18.8l-51.1,35.4l51.3,45.4H337.2z"/>
	<path fill="#333333" d="M427.5,120.2l-54.6-62.7v62.7h-11.4V39.4h10.3c6.9,8.3,16.1,18.8,27.5,31.7c13.8,15.5,22.9,25.7,27.2,30.6
		V39.4h11.4v80.8H427.5z"/>
</g>
<g opacity="0.1">
	<g>
		<path fill="#333333" d="M245.4,99.9c0,0,0.1,0.2,0.2,0.4c0.1,0.2,0.3,0.6,0.6,1c0.6,1,1.5,2.4,2.7,4.3c1.2,1.9,2.7,4.1,4.6,6.6
			c1.9,2.5,4,5.3,6.5,8.2c5,5.8,11.3,12.2,18.9,17.4c3.8,2.6,7.9,4.9,12.3,6.6c4.4,1.7,9,2.7,13.6,2.8c2.3,0.1,4.7-0.1,7.1-0.5
			l1.8-0.3c0.6-0.1,1.2-0.2,1.8-0.4l1.7-0.5l0.9-0.3l0.4-0.1l0.2-0.1l0.3-0.1c0.7-0.2,1.3-0.4,2-0.7c0.7-0.2,1.4-0.5,2.1-0.7
			c0.7-0.2,1.4-0.4,2.1-0.6c0.7-0.2,1.4-0.4,2.2-0.6c1.5-0.4,3-0.7,4.6-0.9c1.7-0.2,3.4-0.3,5.6,0.1c1.2,0.3,2.4,0.7,3.7,1.7
			c1.3,1,2.1,2.5,2.5,3.8c0.4,1.3,0.4,2.4,0.3,3.3c0,0.5-0.1,0.9-0.2,1.3c-0.1,0.4-0.2,0.8-0.2,1.2c-0.8,3-1.9,5.4-3.1,7.6
			c-2.3,4.5-4.7,8.3-6.7,12c-2.1,3.6-4,6.9-5.4,9.9c-1.4,3-2.5,5.7-2.9,8.1c-0.2,1.2-0.2,2.2-0.1,3.1c0.1,0.9,0.5,1.6,0.8,2.1
			c0.8,1,1.5,1.3,1.4,1.4c0,0-0.2-0.1-0.5-0.2c-0.1,0-0.2-0.1-0.3-0.1c-0.1-0.1-0.2-0.1-0.3-0.2c-0.1-0.1-0.2-0.2-0.3-0.2
			c-0.1-0.1-0.2-0.2-0.3-0.3c-0.5-0.5-1-1.2-1.3-2.2c-0.3-0.9-0.5-2.1-0.5-3.4c0-2.6,0.6-5.6,1.6-8.9c1-3.3,2.3-7,3.8-11
			c1.5-3.9,3.2-8.2,4.6-12.6c0.7-2.2,1.3-4.5,1.4-6.4c0-0.2,0-0.4,0-0.7c0-0.2,0-0.4,0-0.6c-0.1-0.3-0.2-0.5-0.2-0.4
			c-0.1,0.1,0.1,0.4,0.3,0.6c0.2,0.2,0.2,0.3,0.1,0.3c-0.4,0-1.3,0.2-2.2,0.5c-1,0.3-2.1,0.7-3.2,1.2c-0.5,0.2-1.1,0.5-1.7,0.8
			c-0.6,0.3-1.1,0.6-1.7,0.8c-0.5,0.3-1.1,0.6-1.6,0.9c-0.6,0.3-1.2,0.7-1.8,1l-0.1,0.1l-0.1,0c0.1,0,0,0,0,0l-0.3,0.1l-0.5,0.3
			l-1,0.5l-2.1,1c-0.7,0.4-1.4,0.6-2.2,0.9l-2.2,0.8c-3,1-6.2,1.8-9.4,2.2c-6.4,0.9-13.1,0.6-19.3-0.6c-6.3-1.2-12.1-3.3-17.5-5.8
			c-5.4-2.5-10.2-5.3-14.6-8.3c-4.4-2.9-8.3-6-11.9-8.9c-3.5-2.9-6.6-5.8-9.2-8.3c-2.7-2.6-4.9-4.9-6.7-6.9c-1.8-2-3.2-3.6-4.2-4.7
			c-0.5-0.6-0.8-1-1.1-1.4c-0.3-0.3-0.4-0.5-0.4-0.5L245.4,99.9z"/>
	</g>
</g>
<path fill="#333333" d="M216.3,44.8v3.7c0,3.1-2.5,5.7-5.7,5.7h-0.1c-3.1,0-5.7-2.5-5.7-5.7v-3.7c0-3.1,2.5-5.7,5.7-5.7h0.1
	C213.7,39.2,216.3,41.7,216.3,44.8"/>
<path fill="#333333" d="M238.5,44.8v3.7c0,3.1-2.5,5.7-5.7,5.7h-0.1c-3.1,0-5.7-2.5-5.7-5.7v-3.7c0-3.1,2.5-5.7,5.7-5.7h0.1
	C235.9,39.2,238.5,41.7,238.5,44.8"/>
<g>
	<path fill="#999999" d="M449.3,49.3c-1.6,0-2.9-0.4-3.9-1.3c-1.2-0.9-1.8-2.2-1.8-3.6c0-1.5,0.6-2.7,1.8-3.6
		c1.1-0.9,2.4-1.4,3.9-1.4c1.6,0,2.9,0.4,3.9,1.3c1.2,0.9,1.8,2.2,1.8,3.6s-0.6,2.8-1.8,3.6C452.1,48.9,450.8,49.3,449.3,49.3z
		 M449.3,40.2c-1.3,0-2.4,0.4-3.4,1.1c-1,0.8-1.5,1.8-1.5,3.1c0,1.3,0.5,2.3,1.4,3.1s2,1.1,3.4,1.1c1.3,0,2.5-0.4,3.4-1.1
		c1-0.8,1.5-1.8,1.5-3.1c0-1.3-0.5-2.4-1.5-3.1C451.6,40.5,450.6,40.2,449.3,40.2z M451.3,44.6c0.4,0.3,0.6,0.7,0.6,1.3v1.7H451
		v-1.7c0-0.6-0.4-0.9-1.2-0.9H448v2.5h-0.9v-6h2.8c1.4,0,2.1,0.6,2.1,1.7C451.9,43.8,451.7,44.2,451.3,44.6z M449.9,42.2H448v1.9
		h1.8c0.9,0,1.4-0.3,1.4-1C451.1,42.5,450.7,42.2,449.9,42.2z"/>
</g>
</svg>
